<svg width="178" height="160" viewBox="0 0 178 160" fill="none" xmlns="http://www.w3.org/2000/svg">
<rect y="60.8701" width="178" height="98.6839" rx="3" fill="white"/>
<path d="M89.4603 0.460938L176.155 60.4091L1.84375 61.3314L89.4603 0.460938Z" fill="white"/>
<path d="M176.44 61.0168C176.376 61.0169 176.314 60.9974 176.261 60.961L89.8975 0.901832C89.6347 0.719912 89.3224 0.62269 89.0026 0.623235C88.6828 0.62378 88.3708 0.722063 88.1086 0.904877L2.3667 60.9603C2.29888 61.0078 2.21495 61.0265 2.13335 61.0122C2.05176 60.9979 1.9792 60.9518 1.93163 60.8841C1.88406 60.8164 1.86538 60.7326 1.8797 60.6511C1.89402 60.5696 1.94017 60.4972 2.00799 60.4497L87.75 0.394198C88.1171 0.138297 88.5538 0.000737666 89.0016 2.95849e-06C89.4493 -0.000731749 89.8865 0.135392 90.2544 0.390087L176.618 60.449C176.673 60.487 176.714 60.5414 176.735 60.6042C176.757 60.6671 176.758 60.7351 176.738 60.7985C176.718 60.8618 176.678 60.9171 176.625 60.9564C176.571 60.9957 176.506 61.0169 176.44 61.0168L176.44 61.0168Z" fill="#3F3D56"/>
<path d="M7.26562 63.1454L89.0869 2.59375L171.529 67.4539L93.3027 113.76L50.8325 104.094L7.26562 63.1454Z" fill="#E6E6E6"/>
<path d="M54.4142 142.362H13.9925C13.7443 142.363 13.4984 142.314 13.269 142.219C13.0396 142.125 12.8312 141.986 12.6555 141.811C12.4799 141.636 12.3406 141.428 12.2456 141.199C12.1505 140.97 12.1016 140.724 12.1016 140.477C12.1016 140.229 12.1505 139.983 12.2456 139.754C12.3406 139.525 12.4799 139.317 12.6555 139.142C12.8312 138.967 13.0396 138.828 13.269 138.734C13.4984 138.639 13.7443 138.591 13.9925 138.591H54.4142C54.6624 138.591 54.9082 138.639 55.1376 138.734C55.367 138.828 55.5755 138.967 55.7511 139.142C55.9267 139.317 56.066 139.525 56.1611 139.754C56.2562 139.983 56.3051 140.229 56.3051 140.477C56.3051 140.724 56.2562 140.97 56.1611 141.199C56.066 141.428 55.9267 141.636 55.7511 141.811C55.5755 141.986 55.367 142.125 55.1376 142.219C54.9082 142.314 54.6624 142.363 54.4142 142.362Z" fill="#0061F5"/>
<path d="M28.4949 134.255H13.9925C13.7443 134.255 13.4984 134.207 13.269 134.112C13.0396 134.017 12.8312 133.879 12.6555 133.703C12.4799 133.528 12.3406 133.32 12.2456 133.091C12.1505 132.862 12.1016 132.617 12.1016 132.369C12.1016 132.121 12.1505 131.876 12.2456 131.647C12.3406 131.418 12.4799 131.21 12.6555 131.035C12.8312 130.86 13.0396 130.721 13.269 130.626C13.4984 130.532 13.7443 130.483 13.9925 130.483H28.4949C28.7431 130.483 28.9889 130.532 29.2183 130.626C29.4477 130.721 29.6562 130.86 29.8318 131.035C30.0074 131.21 30.1467 131.418 30.2418 131.647C30.3369 131.876 30.3858 132.121 30.3858 132.369C30.3858 132.617 30.3369 132.862 30.2418 133.091C30.1467 133.32 30.0074 133.528 29.8318 133.703C29.6562 133.879 29.4477 134.017 29.2183 134.112C28.9889 134.207 28.7431 134.255 28.4949 134.255Z" fill="#0061F5"/>
<path d="M90.2405 96.8724C89.9332 96.8727 89.6289 96.8132 89.3445 96.6971L38.8828 75.7894V10.3449C38.8835 9.7662 39.114 9.21139 39.5238 8.80218C39.9336 8.39297 40.4892 8.16278 41.0688 8.16211H137.876C138.455 8.16278 139.011 8.39297 139.421 8.80218C139.831 9.21139 140.061 9.7662 140.062 10.3449V75.8351L139.967 75.8756L91.1636 96.6869C90.8713 96.8095 90.5575 96.8726 90.2405 96.8724Z" fill="white"/>
<path d="M90.2326 97.0278C89.905 97.0282 89.5804 96.9648 89.2771 96.8411L38.7188 75.8932V10.3446C38.7195 9.72452 38.9664 9.13007 39.4055 8.69163C39.8446 8.25319 40.4399 8.00656 41.0609 8.00586H137.868C138.489 8.00656 139.084 8.25319 139.523 8.69163C139.962 9.13007 140.209 9.72452 140.21 10.3446V75.9377L91.217 96.8299C90.9054 96.9608 90.5706 97.0281 90.2326 97.0278ZM39.3433 75.4767L89.5153 96.2645C89.9832 96.4541 90.5073 96.451 90.973 96.2559L139.585 75.526V10.3446C139.585 9.88987 139.404 9.45396 139.082 9.13244C138.76 8.81092 138.323 8.63005 137.868 8.62951H41.0609C40.6055 8.63005 40.169 8.81092 39.847 9.13244C39.525 9.45396 39.3439 9.88987 39.3433 10.3446L39.3433 75.4767Z" fill="#3F3D56"/>
<path d="M175.814 60.3936H175.752L139.902 75.6794L90.8519 96.5936C90.6602 96.6741 90.4546 96.7161 90.2466 96.7172C90.0387 96.7183 89.8326 96.6784 89.6401 96.5999L39.0351 75.6357L2.30459 60.4185L2.24848 60.3936H2.18597C1.60641 60.3942 1.05077 60.6244 0.640963 61.0336C0.231154 61.4428 0.000643064 61.9976 0 62.5763V157.372C0.000643889 157.951 0.231154 158.506 0.640963 158.915C1.05077 159.324 1.60641 159.554 2.18597 159.555H175.814C176.394 159.554 176.949 159.324 177.359 158.915C177.769 158.506 177.999 157.951 178 157.372V62.5763C177.999 61.9976 177.769 61.4428 177.359 61.0336C176.949 60.6244 176.394 60.3942 175.814 60.3936ZM177.375 157.372C177.375 157.785 177.211 158.182 176.918 158.474C176.625 158.767 176.228 158.931 175.814 158.931H2.18597C1.77191 158.931 1.37485 158.767 1.08207 158.474C0.789286 158.182 0.624727 157.785 0.624561 157.372V62.5763C0.625128 62.1732 0.781751 61.7858 1.06169 61.4952C1.34162 61.2047 1.7232 61.0334 2.12665 61.0172L39.0351 76.3092L89.3998 97.1768C89.945 97.3983 90.5559 97.3949 91.0986 97.1674L139.902 76.356L175.877 61.0172C176.279 61.0346 176.66 61.2063 176.939 61.4967C177.218 61.7871 177.375 62.1738 177.375 62.5763V157.372Z" fill="#3F3D56"/>
<path d="M89.73 78.3145C87.8671 78.318 86.0536 77.7164 84.563 76.6006L84.4706 76.5314L65.0121 61.6548C64.1109 60.9654 63.3546 60.1054 62.7863 59.1241C62.2179 58.1427 61.8487 57.0592 61.6998 55.9354C61.5508 54.8115 61.6249 53.6694 61.918 52.5742C62.2111 51.479 62.7173 50.4521 63.4077 49.5523C64.0982 48.6524 64.9594 47.8972 65.9422 47.3297C66.925 46.7622 68.0101 46.3935 69.1355 46.2448C70.261 46.096 71.4048 46.17 72.5016 46.4627C73.5984 46.7553 74.6267 47.2608 75.5279 47.9502L88.1316 57.6006L117.916 18.8134C118.607 17.9138 119.469 17.1588 120.452 16.5916C121.435 16.0245 122.52 15.6562 123.645 15.5078C124.771 15.3595 125.915 15.4339 127.011 15.727C128.108 16.02 129.136 16.5259 130.037 17.2157L129.852 17.4668L130.042 17.2194C131.859 18.6141 133.048 20.6716 133.348 22.9406C133.648 25.2096 133.034 27.5047 131.642 29.3225L96.6078 74.9456C95.7975 75.9969 94.7556 76.8477 93.5628 77.4319C92.3701 78.0162 91.0585 78.3182 89.73 78.3145Z" fill="#0061F5"/>
</svg>
