<svg width="174" height="71" viewBox="0 0 174 71" fill="none" xmlns="http://www.w3.org/2000/svg">
<path d="M105.98 68.0762C105.927 68.0434 105.855 68.0523 105.816 68.103C105.187 68.8757 104.408 69.2516 103.427 69.2516C102.902 69.2516 102.419 69.1352 101.989 68.9025C101.565 68.6758 101.237 68.3596 100.984 67.933C100.736 67.5124 100.611 67.0619 100.611 66.5965C100.611 65.8746 100.882 65.2511 101.413 64.7469C101.947 64.2338 102.604 63.9833 103.421 63.9833C104.441 63.9833 105.226 64.3591 105.813 65.1258C105.852 65.1765 105.924 65.1885 105.978 65.1556L106.685 64.7261C106.741 64.6903 106.759 64.6157 106.726 64.559C106.509 64.201 106.252 63.9117 105.939 63.679C105.625 63.4493 105.25 63.2613 104.82 63.1241C104.393 62.9839 103.934 62.9123 103.46 62.9123C102.72 62.9123 102.037 63.0764 101.425 63.3986C100.82 63.7267 100.339 64.1861 99.9992 64.7678C99.6472 65.3406 99.4712 65.976 99.4712 66.6592C99.4712 67.6675 99.8471 68.5356 100.587 69.2396C101.327 69.9437 102.269 70.2986 103.388 70.2986C104.113 70.2986 104.772 70.1584 105.345 69.881C105.915 69.6066 106.38 69.2128 106.726 68.7056C106.744 68.6758 106.75 68.646 106.744 68.6102C106.738 68.5774 106.717 68.5505 106.69 68.5326L105.983 68.0732L105.98 68.0762Z" fill="#878787"/>
<path d="M111.586 62.9123C110.491 62.9123 109.572 63.3091 108.847 64.0936C108.191 64.8036 107.86 65.6538 107.86 66.6234C107.86 67.5929 108.209 68.461 108.898 69.1949C109.596 69.9287 110.5 70.2986 111.586 70.2986C112.672 70.2986 113.576 69.9257 114.268 69.1949C114.96 68.464 115.312 67.5989 115.312 66.6234C115.312 65.6479 114.981 64.7977 114.321 64.0906C113.6 63.3091 112.678 62.9123 111.583 62.9123H111.586ZM112.881 68.8936C112.484 69.1113 112.048 69.2217 111.586 69.2217C111.123 69.2217 110.682 69.1113 110.291 68.8936C109.903 68.6728 109.587 68.3596 109.357 67.9569C109.125 67.5452 109.005 67.1037 109.005 66.6413C109.005 65.9164 109.262 65.2869 109.769 64.7768C110.267 64.2667 110.879 64.0101 111.583 64.0101C112.287 64.0101 112.887 64.2696 113.397 64.7768C113.904 65.2899 114.16 65.9164 114.16 66.6413C114.16 67.1037 114.044 67.5482 113.811 67.9569C113.582 68.3596 113.265 68.6758 112.878 68.8936H112.881Z" fill="#878787"/>
<path d="M121.75 63.324C121.335 63.0525 120.849 62.9153 120.306 62.9153C119.763 62.9153 119.294 63.0376 118.838 63.2763C118.48 63.4731 118.146 63.7416 117.848 64.0787V63.2136C117.848 63.145 117.791 63.0913 117.722 63.0913H116.83C116.762 63.0913 116.705 63.145 116.705 63.2136V70.0033C116.705 70.0719 116.762 70.1256 116.83 70.1256H117.722C117.791 70.1256 117.848 70.0719 117.848 70.0033V67.5124C117.848 66.5876 117.883 66.0088 117.97 65.6956C118.098 65.2034 118.367 64.7887 118.769 64.4606C119.175 64.1294 119.623 63.9683 120.133 63.9683C120.577 63.9683 120.926 64.0698 121.195 64.2786C121.463 64.4904 121.645 64.8007 121.747 65.2243C121.791 65.4092 121.842 65.8269 121.842 66.7636V70.0033C121.842 70.0719 121.899 70.1256 121.967 70.1256H122.853C122.922 70.1256 122.979 70.0719 122.979 70.0033V66.507C122.979 65.5494 122.88 64.8663 122.683 64.4218C122.477 63.9534 122.164 63.5865 121.753 63.327L121.75 63.324Z" fill="#878787"/>
<path d="M126.591 66.0297C125.95 65.7046 125.678 65.4749 125.565 65.3376C125.413 65.1646 125.338 64.9826 125.338 64.7857C125.338 64.5769 125.428 64.392 125.607 64.2219C125.786 64.0578 126.004 63.9743 126.257 63.9743C126.684 63.9743 127.122 64.1921 127.567 64.6217C127.591 64.6455 127.621 64.6575 127.653 64.6575C127.689 64.6575 127.719 64.6425 127.743 64.6217L128.319 64.0399C128.342 64.0161 128.354 63.9862 128.354 63.9534C128.354 63.9206 128.342 63.8908 128.319 63.8669C127.65 63.2345 126.976 62.9153 126.311 62.9153C125.735 62.9153 125.249 63.1002 124.867 63.4642C124.485 63.8252 124.288 64.2875 124.288 64.8365C124.288 65.263 124.411 65.6419 124.652 65.9611C124.885 66.2893 125.315 66.6114 125.968 66.9396C126.669 67.2916 126.94 67.5094 127.045 67.6287C127.194 67.8017 127.266 67.9956 127.266 68.2253C127.266 68.4879 127.152 68.7235 126.934 68.9234C126.699 69.1292 126.427 69.2277 126.108 69.2277C125.637 69.2277 125.183 68.989 124.757 68.5147C124.733 68.4879 124.7 68.473 124.664 68.473C124.628 68.473 124.596 68.4879 124.572 68.5147L124.014 69.1382C123.975 69.1829 123.972 69.2486 124.008 69.2963C124.252 69.6095 124.572 69.8601 124.954 70.0361C125.332 70.2151 125.735 70.3046 126.147 70.3046C126.776 70.3046 127.307 70.0958 127.728 69.6871C128.149 69.2754 128.363 68.7713 128.363 68.1836C128.363 67.76 128.238 67.3781 127.987 67.044C127.737 66.7159 127.271 66.3788 126.594 66.0357L126.591 66.0297Z" fill="#878787"/>
<path d="M135.729 63.0883H134.825C134.756 63.0883 134.7 63.142 134.7 63.2106V66.3788C134.7 67.402 134.628 67.8286 134.571 68.0076C134.449 68.3626 134.228 68.6519 133.906 68.8727C133.587 69.0935 133.184 69.2068 132.713 69.2068C132.241 69.2068 131.842 69.0935 131.502 68.8638C131.167 68.6341 130.941 68.3268 130.827 67.9449C130.744 67.6675 130.702 67.1425 130.702 66.3788V63.2106C130.702 63.142 130.645 63.0883 130.577 63.0883H129.691C129.622 63.0883 129.568 63.142 129.568 63.2106V66.4802C129.568 67.4706 129.679 68.1955 129.912 68.7027C130.144 69.2038 130.502 69.6006 130.974 69.881C131.436 70.1614 132.024 70.3017 132.722 70.3017C133.42 70.3017 133.999 70.1614 134.461 69.881C134.932 69.5976 135.284 69.2038 135.514 68.7116C135.744 68.2194 135.86 67.4915 135.86 66.5458V63.2136C135.86 63.145 135.803 63.0913 135.735 63.0913L135.729 63.0883Z" fill="#878787"/>
<path d="M138.455 60.4661H137.569C137.501 60.4661 137.444 60.5198 137.444 60.5884V70.0003C137.444 70.069 137.501 70.1227 137.569 70.1227H138.455C138.524 70.1227 138.581 70.069 138.581 70.0003V60.5884C138.581 60.5198 138.527 60.4661 138.455 60.4661Z" fill="#878787"/>
<path d="M143.378 63.0883H142.095V60.6898C142.095 60.6242 142.038 60.5675 141.97 60.5675H141.078C141.009 60.5675 140.952 60.6242 140.952 60.6898V63.0883H139.869C139.798 63.0883 139.744 63.142 139.744 63.2106V63.9654C139.744 64.034 139.798 64.0877 139.869 64.0877H140.952V69.9974C140.952 70.066 141.009 70.1197 141.078 70.1197H141.97C142.038 70.1197 142.095 70.066 142.095 69.9974V64.0877H143.378C143.446 64.0877 143.503 64.031 143.503 63.9654V63.2106C143.503 63.142 143.446 63.0883 143.378 63.0883Z" fill="#878787"/>
<path d="M147.975 62.9123C146.877 62.9123 145.952 63.3091 145.236 64.0936C144.583 64.8006 144.252 65.6509 144.252 66.6234C144.252 67.5959 144.601 68.464 145.287 69.1949C145.985 69.9287 146.889 70.2986 147.978 70.2986C149.067 70.2986 149.97 69.9257 150.657 69.1949C151.349 68.467 151.701 67.6019 151.701 66.6234C151.701 65.6449 151.37 64.7977 150.713 64.0877C149.988 63.3091 149.07 62.9123 147.975 62.9123ZM149.269 68.8936C148.873 69.1113 148.437 69.2217 147.975 69.2217C147.512 69.2217 147.071 69.1113 146.68 68.8936C146.289 68.6758 145.985 68.3685 145.749 67.9569C145.517 67.5482 145.4 67.1066 145.4 66.6413C145.4 65.9164 145.657 65.2869 146.164 64.7768C146.662 64.2667 147.274 64.0101 147.978 64.0101C148.682 64.0101 149.284 64.2696 149.788 64.7768C150.299 65.2929 150.555 65.9193 150.555 66.6413C150.555 67.1037 150.436 67.5452 150.203 67.9569C149.973 68.3596 149.66 68.6728 149.272 68.8936H149.269Z" fill="#878787"/>
<path d="M154.579 63.2226C154.344 63.3717 154.126 63.5716 153.914 63.8311V63.2136C153.914 63.145 153.858 63.0913 153.789 63.0913H152.882C152.813 63.0913 152.757 63.145 152.757 63.2136V70.0033C152.757 70.072 152.813 70.1256 152.882 70.1256H153.789C153.858 70.1256 153.914 70.072 153.914 70.0033V67.7063C153.914 66.5428 153.968 65.7642 154.072 65.3973C154.21 64.92 154.406 64.565 154.66 64.3413C154.923 64.1175 155.179 64.0101 155.439 64.0101C155.54 64.0101 155.68 64.0489 155.853 64.1205C155.91 64.1444 155.976 64.1265 156.008 64.0728L156.477 63.3359C156.495 63.3061 156.501 63.2733 156.492 63.2405C156.483 63.2077 156.462 63.1808 156.432 63.1629C155.749 62.784 155.143 62.8616 154.579 63.2256V63.2226Z" fill="#878787"/>
<path d="M160.286 62.9123C159.108 62.9123 158.153 63.3628 157.449 64.2458C156.897 64.9319 156.62 65.7314 156.62 66.6234C156.62 67.569 156.948 68.4252 157.596 69.165C158.255 69.9168 159.18 70.2986 160.337 70.2986C160.865 70.2986 161.327 70.2211 161.745 70.06C162.163 69.9019 162.542 69.6722 162.87 69.3739C163.204 69.0696 163.499 68.6728 163.753 68.1895C163.783 68.1299 163.759 68.0553 163.699 68.0255L162.947 67.6377C162.888 67.6078 162.819 67.6287 162.783 67.6824C162.518 68.112 162.273 68.4282 162.052 68.6191C161.826 68.813 161.56 68.9622 161.241 69.0755C160.922 69.1919 160.591 69.2516 160.256 69.2516C159.564 69.2516 158.98 69.0099 158.511 68.5296C158.064 68.0762 157.822 67.5064 157.783 66.7994H163.866C163.899 66.7994 163.932 66.7874 163.956 66.7636C163.979 66.7397 163.991 66.7099 163.991 66.6771C163.979 65.7284 163.714 64.92 163.204 64.2816C162.473 63.3777 161.492 62.9153 160.286 62.9153V62.9123ZM157.909 65.797C158.085 65.275 158.329 64.8722 158.634 64.6008C159.093 64.1951 159.654 63.9892 160.298 63.9892C160.695 63.9892 161.059 64.0698 161.417 64.2338C161.775 64.3979 162.064 64.6157 162.273 64.8752C162.464 65.1079 162.616 65.4182 162.727 65.794H157.909V65.797Z" fill="#878787"/>
<path d="M168.75 67.038C168.49 66.7069 168.025 66.3668 167.356 66.0327C166.7 65.6986 166.438 65.4748 166.327 65.3406C166.175 65.1706 166.1 64.9916 166.1 64.7887C166.1 64.5739 166.187 64.389 166.363 64.2249C166.554 64.0548 166.763 63.9743 167.022 63.9743C167.443 63.9743 167.884 64.1921 168.332 64.6217C168.356 64.6425 168.389 64.6575 168.418 64.6575C168.463 64.6575 168.487 64.6425 168.508 64.6187L169.075 64.037C169.099 64.0131 169.111 63.9833 169.111 63.9504C169.111 63.9176 169.096 63.8878 169.072 63.8639C168.395 63.2255 167.738 62.9123 167.064 62.9123C166.491 62.9123 166.005 63.0972 165.62 63.4612C165.241 63.8222 165.05 64.2846 165.05 64.8305C165.05 65.2511 165.17 65.63 165.408 65.9551C165.641 66.2773 166.071 66.5995 166.724 66.9336C167.422 67.2797 167.699 67.5004 167.807 67.6227C167.953 67.7987 168.025 67.9926 168.025 68.2194C168.025 68.4879 167.914 68.7176 167.688 68.9174C167.464 69.1173 167.186 69.2217 166.867 69.2217C166.387 69.2217 165.942 68.989 165.51 68.5087C165.486 68.4819 165.453 68.467 165.414 68.467C165.379 68.467 165.346 68.4819 165.322 68.5087L164.764 69.1322C164.722 69.177 164.722 69.2426 164.761 69.2903C165.027 69.6155 165.337 69.8571 165.71 70.0302C166.092 70.2121 166.482 70.2986 166.903 70.2986C167.523 70.2986 168.057 70.0898 168.484 69.6811C168.905 69.2724 169.116 68.7653 169.116 68.1776C169.116 67.7629 168.991 67.3781 168.744 67.038H168.75Z" fill="#878787"/>
<path d="M112.982 57.0802C116.86 57.0802 120.18 55.7706 122.85 53.1871C125.502 50.5888 126.848 47.3192 126.848 43.4739C126.848 39.6286 125.511 36.4038 122.877 33.7875C120.204 31.1683 116.911 29.8408 113.086 29.8408C109.262 29.8408 106.01 31.1593 103.355 33.7607C100.7 36.359 99.3549 39.557 99.3549 43.2681C99.3549 47.1969 100.676 50.5112 103.278 53.1096C105.879 55.7437 109.143 57.0802 112.985 57.0802H112.982ZM107.836 37.7671C109.167 36.3322 110.933 35.6043 113.086 35.6043C115.24 35.6043 117.063 36.3322 118.394 37.7671C119.715 39.1811 120.386 41.1142 120.386 43.5037C120.386 45.8933 119.715 47.8174 118.394 49.2374C117.078 50.6514 115.294 51.3674 113.086 51.3674C110.879 51.3674 109.11 50.6395 107.782 49.2106C106.479 47.7906 105.819 45.8246 105.819 43.3725C105.819 41.0844 106.5 39.202 107.836 37.7671Z" fill="#878787"/>
<path d="M95.7184 30.679C95.6916 30.6194 95.6438 30.5716 95.5842 30.5418C95.5573 30.5299 95.5275 30.5239 95.4947 30.5239H89.755C89.6924 30.5239 89.6327 30.5508 89.591 30.5925C89.5701 30.6164 89.5492 30.6462 89.5343 30.679C89.5224 30.7059 89.5164 30.7357 89.5164 30.7685V33.0238C87.4669 30.8968 84.9223 29.8199 81.9481 29.8199C78.3145 29.8199 75.3522 31.2369 73.1387 34.0381C71.0863 36.6603 70.0452 39.8881 70.0452 43.638C70.0452 47.3878 71.1668 50.7469 73.3774 53.3214C75.573 55.869 78.4309 57.1607 81.8705 57.1607C84.7194 57.1607 87.2909 56.0719 89.5194 53.924V56.8893C89.5194 62.0263 87.5356 64.5232 83.4546 64.5232C81.2649 64.5232 79.5764 63.7566 78.4398 62.2471C77.9536 61.5937 77.5986 60.654 77.3898 59.4548C77.3898 59.4518 77.3898 59.4488 77.3868 59.4459C77.3868 59.4399 77.3838 59.4369 77.3808 59.4309C77.3361 59.3265 77.2346 59.2549 77.1183 59.2549H77.1153C77.1153 59.2549 71.4085 59.2549 71.3936 59.2549C71.2713 59.2728 71.1788 59.3623 71.1549 59.4817C71.1489 59.5025 71.1549 59.6278 71.1698 59.6666C71.5397 62.969 72.8434 65.6061 75.0629 67.4975C77.2436 69.359 80.0508 70.3076 83.4068 70.3076C87.3894 70.3076 90.5665 68.9443 92.8456 66.2594C94.0598 64.8603 94.8831 63.1629 95.3008 61.2179C95.438 60.5258 95.5454 59.7263 95.6259 58.7746C95.7005 57.8379 95.7393 56.764 95.7393 55.5886V30.864C95.7393 30.864 95.7333 30.7059 95.7214 30.679H95.7184ZM88.0397 49.0674C86.7987 50.6514 85.155 51.4241 83.022 51.4241C80.889 51.4241 79.2423 50.6425 78.058 49.0972C76.9572 47.6712 76.3993 45.8097 76.3993 43.5694C76.3993 41.329 76.9572 39.4138 78.058 37.9878C79.2572 36.4067 80.9278 35.6073 83.019 35.6073C84.976 35.6073 86.6078 36.3411 87.8667 37.7909C89.1137 39.2139 89.7461 41.147 89.7461 43.5425C89.7461 45.7829 89.1703 47.6414 88.0367 49.0674H88.0397Z" fill="#878787"/>
<path d="M8.42152 33.4206C8.55278 28.8444 9.72219 24.5874 11.8969 20.7749C14.2119 16.7088 17.4188 13.5287 21.4312 11.3182C25.4525 9.09572 30.0675 7.96808 35.1478 7.96808C40.2282 7.96808 44.2973 8.96147 48.0024 10.9184C50.3024 12.1326 51.7821 13.6361 53.4198 15.4141C54.4132 16.494 55.2813 17.6724 56.0241 18.9492C56.5015 19.7725 56.9221 20.6287 57.283 21.5207C58.2854 23.5075 58.9894 25.8672 59.3086 28.4357L59.3444 28.7638C59.5682 30.509 59.5711 33.2356 59.5711 33.4474H66.2445C66.2475 33.3162 66.2445 32.1975 66.2445 31.6396C66.2445 31.034 66.2236 30.4344 66.1849 29.8437C66.0536 27.8152 65.7016 25.897 65.1736 24.1488C64.8514 22.9108 64.4665 21.6967 64.0191 20.5153C59.8605 10.3606 51.1765 2.71469 40.0224 0.593653C37.9819 0.205839 35.8757 0 33.7219 0C31.4576 0 29.2471 0.223739 27.1082 0.653317C26.613 0.760711 26.1237 0.883022 25.6345 1.0113C24.2085 1.3663 22.8213 1.82571 21.4729 2.3776C9.44177 7.42514 0.796509 19.2952 0.00894954 33.352C0.00298318 33.3818 0 33.4146 0 33.4474H8.4245C8.4245 33.4474 8.4245 33.4295 8.42152 33.4206V33.4206Z" fill="#418634"/>
<path d="M50.7975 18.2929C50.7975 18.2571 50.7915 18.2213 50.7856 18.1855C50.7408 17.9737 50.5618 17.8126 50.3411 17.7857C50.3202 17.7857 50.2993 17.7798 50.2784 17.7798C50.2576 17.7798 42.8473 17.7738 42.8086 17.7738C42.7698 17.7738 42.734 17.7768 42.6982 17.7857C42.4953 17.8305 42.3342 17.9916 42.2984 18.1974C42.2925 18.2272 42.2895 18.2571 42.2895 18.2869C42.2895 18.3167 42.2984 21.5475 42.2984 21.5475C39.1124 18.4152 35.4819 16.8281 31.4963 16.8281C26.7411 16.8281 22.7228 18.5912 19.5517 22.0636C16.7892 25.0975 15.2231 28.8533 14.877 33.2207C14.877 33.2804 14.8651 33.3579 14.8591 33.4474H23.5491C23.5491 33.4206 23.5521 33.3967 23.5521 33.3907C23.8385 31.0967 24.7036 29.095 26.1535 27.4423C27.9851 25.4078 30.2911 24.3756 33.0118 24.3756C35.8935 24.3756 38.2741 25.3958 40.0789 27.4035C41.5168 29.0413 42.379 31.0698 42.6773 33.4265C42.6773 33.4265 42.6773 33.4415 42.6773 33.4474H50.7975C50.7975 33.4474 50.7975 33.4385 50.7975 33.4325V18.2929Z" fill="#418634"/>
<path d="M0.211723 37.1555C0.211723 37.1555 0.211723 37.2748 0.223656 37.3136C0.951552 46.8538 5.30401 55.341 11.8581 61.2924C15.6079 64.6962 20.0737 67.2737 24.993 68.7444C26.6039 69.1919 28.2626 69.5141 29.96 69.6901C31.5829 69.9138 33.2385 70.0302 34.9181 70.0302C35.5445 70.0302 36.168 70.0093 36.7855 69.9794C38.3547 69.8989 39.897 69.7139 41.4035 69.4395C49.3954 67.7779 56.3761 63.2494 61.3282 56.94C61.3818 56.8922 61.5071 56.6327 61.5071 56.5551C61.5071 56.3045 61.3222 56.0957 61.0776 56.054H53.0498C52.9782 56.0659 52.9096 56.0927 52.85 56.1315C52.8261 56.1524 52.7992 56.1733 52.7724 56.1942C50.0875 58.4166 47.525 60.0425 45.1354 61.0299C42.4058 62.1635 39.4585 62.7363 36.3679 62.7363C31.5799 62.7363 27.1648 61.7846 23.215 59.9142C16.4253 56.4776 11.2942 50.3143 9.30148 42.8922C8.32598 39.2646 8.44829 37.2032 8.44829 37.1794C8.44829 37.1376 8.44232 37.1018 8.43337 37.066C8.43337 37.063 8.43039 37.0571 8.43039 37.0541H0.235589C0.226639 37.0869 0.211723 37.1167 0.20874 37.1495L0.211723 37.1555Z" fill="#274082"/>
<path d="M59.589 37.0571C59.5801 37.0899 59.5711 37.1227 59.5622 37.1555C58.1273 42.6744 54.7115 45.1773 52.5249 46.2393C51.3763 46.7942 50.5679 46.9582 50.5679 46.9582V37.2659C50.5679 37.2659 50.5679 37.2152 50.5679 37.2062C50.5649 37.1525 50.55 37.1018 50.5321 37.0541H42.7818C42.7818 37.0541 42.7728 37.072 42.7699 37.0809C42.7579 37.1257 42.749 37.2361 42.752 37.248C42.5581 38.7784 42.1315 40.1626 41.4692 41.4006C41.0844 42.1195 40.6309 42.7967 40.088 43.4202C38.8172 44.8253 37.2778 45.7471 35.47 46.1945C35.47 46.1916 35.4641 46.1886 35.4641 46.1856C34.6347 46.3855 33.7487 46.4869 32.809 46.4869C29.978 46.4869 27.6332 45.4279 25.7717 43.2919C24.3547 41.6541 23.5104 39.6315 23.1972 37.239C23.1972 37.2301 23.1912 37.1167 23.1763 37.0571H14.8383C14.8204 37.1048 14.8025 37.1495 14.7996 37.2003C14.7996 37.2122 14.8025 37.3226 14.8115 37.3643C15.2023 41.7108 16.7446 45.4159 19.4533 48.4647C22.6453 51.961 26.6816 53.7092 31.568 53.7092C32.985 53.7092 34.3692 53.4974 35.7176 53.0797C37.4001 52.5577 39.029 51.7104 40.6071 50.5381C40.6041 50.5381 40.6011 50.5351 40.5981 50.5321C41.1947 50.0846 41.7854 49.5954 42.3701 49.0584C42.3701 49.0584 42.3671 52.2892 42.3701 52.3011C42.388 52.5278 42.5521 52.6531 42.7699 52.7038C42.8086 52.7128 48.3753 52.7217 48.4051 52.7217C51.0929 52.7217 53.5958 52.1937 55.9257 50.905C61.2447 48.0799 64.7619 43.2949 66.2475 37.0571H59.592H59.589Z" fill="#274082"/>
<path d="M171.736 65.2839V63.7804H172.374C172.535 63.7804 172.652 63.7923 172.723 63.8222C172.795 63.849 172.854 63.8967 172.899 63.9654C172.944 64.034 172.965 64.1145 172.965 64.204C172.965 64.3174 172.932 64.4098 172.866 64.4844C172.801 64.559 172.699 64.6038 172.568 64.6246C172.634 64.6634 172.687 64.7052 172.732 64.7499C172.774 64.7947 172.834 64.8782 172.905 64.9945L173.09 65.2869H172.726L172.505 64.9588C172.428 64.8424 172.374 64.7678 172.344 64.738C172.315 64.7082 172.285 64.6873 172.252 64.6753C172.219 64.6634 172.168 64.6575 172.1 64.6575H172.037V65.2869H171.733L171.736 65.2839ZM172.04 64.4158H172.264C172.41 64.4158 172.499 64.4098 172.535 64.3979C172.571 64.386 172.601 64.3651 172.622 64.3353C172.643 64.3054 172.652 64.2667 172.652 64.2219C172.652 64.1712 172.637 64.1294 172.61 64.0996C172.583 64.0698 172.544 64.0489 172.496 64.0399C172.473 64.0369 172.398 64.034 172.276 64.034H172.037V64.4158H172.04Z" fill="#878787"/>
<path d="M174 64.6038C174 65.5375 173.242 66.2952 172.309 66.2952C171.375 66.2952 170.617 65.5375 170.617 64.6038C170.617 63.67 171.375 62.9123 172.309 62.9123C173.242 62.9123 174 63.67 174 64.6038ZM172.309 66.0327C173.096 66.0327 173.737 65.3913 173.737 64.6038C173.737 63.8162 173.096 63.1748 172.309 63.1748C171.521 63.1748 170.88 63.8162 170.88 64.6038C170.88 65.3913 171.521 66.0327 172.309 66.0327Z" fill="#878787"/>
</svg>
