<svg width="267" height="178" viewBox="0 0 267 178" fill="none" xmlns="http://www.w3.org/2000/svg">
<path d="M95.6923 102.03C104.835 85.9481 122.273 73.5996 140.734 74.7892C127.117 89.5972 119.177 108.744 118.318 128.843C118.015 136.596 118.485 145.25 113.337 151.055C110.134 154.667 105.239 156.416 100.426 156.783C95.612 157.15 90.7995 156.281 86.0502 155.415L84.8981 155.768C84.4595 137.274 86.55 118.112 95.6923 102.03Z" fill="#28A745"/>
<path d="M140.755 75.1761C127.103 81.7479 115.463 92.7235 108.317 106.109C106.772 109.003 105.457 112.073 104.883 115.319C104.309 118.567 104.71 121.658 105.819 124.743C106.834 127.562 108.197 130.329 108.508 133.347C108.836 136.527 107.666 139.501 105.559 141.861C102.982 144.748 99.5212 146.538 96.0758 148.17C92.2503 149.982 88.2481 151.804 85.5385 155.186C85.2102 155.596 84.5935 155.063 84.9213 154.653C89.6355 148.769 97.7049 147.662 103.301 142.922C105.912 140.71 107.872 137.698 107.748 134.168C107.64 131.082 106.236 128.228 105.185 125.381C104.081 122.393 103.53 119.388 103.926 116.201C104.331 112.942 105.529 109.814 106.993 106.893C110.295 100.306 114.814 94.2588 119.99 89.0313C125.94 83.0224 132.873 78.0755 140.491 74.4046C140.962 74.1775 141.223 74.9506 140.755 75.1761Z" fill="white"/>
<path d="M110.416 101.636C108.323 100.105 106.843 97.8811 106.238 95.3599C105.634 92.8387 105.946 90.1849 107.118 87.8723C107.357 87.4052 108.094 87.7542 107.855 88.2219C106.759 90.3734 106.469 92.8455 107.037 95.1921C107.604 97.5387 108.992 99.6051 110.949 101.019C111.374 101.326 110.839 101.942 110.416 101.636Z" fill="white"/>
<path d="M105.126 123.38C110.37 122.614 115.133 119.899 118.464 115.777C118.794 115.369 119.411 115.902 119.082 116.31C115.607 120.593 110.645 123.408 105.186 124.193C104.666 124.268 104.609 123.454 105.126 123.38V123.38Z" fill="white"/>
<path d="M126.348 84.026C127.035 84.7868 127.899 85.3652 128.865 85.7093C129.83 86.0534 130.865 86.1524 131.878 85.9974C132.397 85.9163 132.454 86.73 131.938 86.8105C130.818 86.9766 129.674 86.8659 128.607 86.488C127.54 86.1102 126.582 85.4768 125.816 84.6432C125.737 84.5706 125.689 84.4708 125.681 84.364C125.673 84.2572 125.706 84.1514 125.773 84.0682C125.844 83.9868 125.945 83.9367 126.052 83.9288C126.16 83.9209 126.266 83.9558 126.348 84.026Z" fill="white"/>
<path d="M177.458 125.523C177.135 125.582 176.813 125.642 176.487 125.708C172.152 126.535 167.892 127.713 163.748 129.23C163.426 129.342 163.101 129.461 162.782 129.582C152.838 133.343 143.677 138.917 135.767 146.022C132.622 148.852 129.697 151.917 127.017 155.191C123.317 159.713 119.664 164.91 114.828 167.858C114.327 168.171 113.807 168.453 113.271 168.702L85.4121 157.146C85.3619 157.088 85.3089 157.036 85.2584 156.978L84.125 156.568C84.2514 156.389 84.3864 156.207 84.5128 156.028C84.5857 155.924 84.6648 155.823 84.7377 155.719C84.7883 155.651 84.8392 155.583 84.8809 155.518C84.8976 155.495 84.9147 155.472 84.9288 155.456C84.9706 155.391 85.0162 155.336 85.0552 155.277C85.8068 154.256 86.5668 153.237 87.3353 152.223C87.338 152.216 87.338 152.216 87.3468 152.213C93.2223 144.496 99.7937 137.202 107.263 131.137C107.488 130.955 107.715 130.766 107.953 130.589C111.335 127.874 114.933 125.439 118.712 123.311C120.784 122.152 122.915 121.098 125.094 120.155C130.73 117.727 136.712 116.202 142.822 115.633C155.002 114.502 167.408 117.279 176.75 124.931C176.989 125.127 177.222 125.32 177.458 125.523Z" fill="#28A745"/>
<path d="M177.252 125.85C162.396 122.878 146.493 124.633 132.729 131.019C129.753 132.399 126.855 134.059 124.442 136.305C122.028 138.552 120.487 141.262 119.516 144.393C118.628 147.255 118.051 150.285 116.483 152.881C114.83 155.618 112.105 157.288 109.002 157.904C105.206 158.658 101.365 158.003 97.6314 157.232C93.4859 156.375 89.1935 155.42 84.9937 156.49C84.4848 156.619 84.3135 155.822 84.8216 155.693C92.1286 153.832 99.2376 157.807 106.559 157.392C109.976 157.197 113.355 155.973 115.381 153.08C117.153 150.551 117.75 147.426 118.625 144.52C119.542 141.47 120.912 138.739 123.147 136.433C125.432 134.074 128.272 132.298 131.2 130.848C137.802 127.576 145.051 125.468 152.331 124.411C160.699 123.195 169.214 123.42 177.506 125.075C178.019 125.178 177.762 125.952 177.252 125.85V125.85Z" fill="white"/>
<path d="M137.092 128.707C136.342 126.225 136.499 123.558 137.535 121.181C138.57 118.804 140.417 116.873 142.745 115.732C143.217 115.503 143.595 116.225 143.123 116.455C140.953 117.513 139.233 119.312 138.273 121.527C137.313 123.743 137.177 126.228 137.889 128.535C138.043 129.036 137.245 129.206 137.092 128.707Z" fill="white"/>
<path d="M119.777 142.882C124.425 145.428 129.862 146.128 135.004 144.842C135.513 144.715 135.684 145.512 135.176 145.639C129.823 146.967 124.166 146.227 119.335 143.567C118.874 143.314 119.319 142.63 119.777 142.882Z" fill="white"/>
<path d="M160.413 124.238C160.503 125.259 160.845 126.241 161.409 127.097C161.972 127.953 162.739 128.656 163.641 129.142C164.105 129.389 163.66 130.073 163.2 129.827C162.205 129.285 161.359 128.508 160.734 127.564C160.11 126.62 159.726 125.537 159.616 124.41C159.597 124.305 159.619 124.196 159.677 124.106C159.735 124.016 159.825 123.952 159.929 123.926C160.034 123.904 160.144 123.924 160.235 123.982C160.326 124.041 160.39 124.133 160.413 124.238Z" fill="white"/>
<path d="M124.394 144.587C120.492 125.723 115.615 119.433 115.615 119.433L113.752 117.988L111.512 116.248L111.523 116.024L110.991 115.843L110.866 115.746L110.662 115.589L110.629 115.625L110.559 115.697L100.421 112.25L87.5579 107.881L81.6017 100.139C80.6316 98.8784 79.3827 97.8593 77.9529 97.1619C76.523 96.4645 74.9511 96.1076 73.3603 96.1194L54.338 96.2602C51.7659 96.2792 49.294 97.2597 47.4083 99.0089L34.9052 110.606L15.4229 119.911L15.3901 119.878L15.1855 120.024L12.1753 121.464L12.2995 122.11L10.4364 123.455C10.4364 123.455 5.55947 129.307 1.6579 146.86C0.665388 151.327 0.176836 160.908 0.000495555 172.714C-0.00836203 173.311 0.101601 173.904 0.323987 174.459C0.546374 175.013 0.87675 175.518 1.2959 175.943C1.71506 176.369 2.21463 176.707 2.76556 176.937C3.3165 177.168 3.90782 177.287 4.50513 177.287H108.563V177.287H121.551C122.148 177.287 122.739 177.168 123.29 176.938C123.84 176.707 124.34 176.37 124.759 175.945C125.178 175.52 125.508 175.015 125.731 174.462C125.954 173.908 126.064 173.315 126.056 172.719C125.884 159.871 125.395 149.431 124.394 144.587Z" fill="#292186"/>
<path d="M137.749 16.4521C133.701 16.4521 129.818 18.0604 126.955 20.9231C124.093 23.7858 122.484 27.6685 122.484 31.717C122.484 35.7654 124.093 39.6481 126.955 42.5108C129.818 45.3735 133.701 46.9818 137.749 46.9818H251.508C255.557 46.9818 259.44 45.3735 262.302 42.5108C265.165 39.6481 266.773 35.7654 266.773 31.717C266.773 27.6685 265.165 23.7858 262.302 20.9231C259.44 18.0604 255.557 16.4521 251.508 16.4521H137.749Z" fill="#E5E5E5"/>
<path d="M137.746 19.541C134.517 19.541 131.42 20.8238 129.136 23.1071C126.853 25.3905 125.57 28.4874 125.57 31.7165C125.57 34.9457 126.853 38.0426 129.136 40.3259C131.42 42.6093 134.517 43.892 137.746 43.892H251.505C254.734 43.892 257.831 42.6093 260.114 40.3259C262.398 38.0426 263.681 34.9457 263.681 31.7165C263.681 28.4874 262.398 25.3905 260.114 23.1071C257.831 20.8238 254.734 19.541 251.505 19.541H137.746Z" fill="white"/>
<path d="M66.843 88.9721C80.6065 88.9721 91.7641 77.8146 91.7641 64.051C91.7641 50.2874 80.6065 39.1299 66.843 39.1299C53.0794 39.1299 41.9219 50.2874 41.9219 64.051C41.9219 77.8146 53.0794 88.9721 66.843 88.9721Z" fill="#FFC1CA"/>
<path d="M60.467 87.7525C60.3605 87.5181 60.2543 87.2829 60.1484 87.0469C60.1892 87.0482 60.2296 87.054 60.2704 87.0551L60.467 87.7525Z" fill="#2F2E41"/>
<path d="M41.2267 40.2644C42.4872 39.2589 43.9603 38.3338 45.5719 38.3858C47.1834 38.4377 48.8175 39.8932 48.4837 41.4706C51.4437 36.2297 56.1551 32.1988 61.791 30.0855C67.4269 27.9721 73.6271 27.9115 79.3032 29.9141C83.3085 31.3272 87.2363 34.1542 88.1563 38.3006C88.3925 39.3649 88.4432 40.532 89.1078 41.3963C89.9457 42.4861 91.549 42.7326 92.8691 42.3492C92.8823 42.3454 92.8955 42.3415 92.9086 42.3376C93.1316 42.2614 93.3724 42.254 93.5997 42.3161C93.827 42.3783 94.0304 42.5072 94.1837 42.6862C94.3369 42.8652 94.4329 43.0861 94.4592 43.3203C94.4856 43.5545 94.441 43.7912 94.3314 43.9998L93.1981 46.1134C94.6267 46.4318 96.1111 46.4002 97.5248 46.0213C97.7597 45.9597 98.0078 45.9723 98.2352 46.0573C98.4626 46.1423 98.6582 46.2956 98.795 46.4962C98.9319 46.6967 99.0033 46.9347 98.9996 47.1775C98.9958 47.4202 98.9171 47.6559 98.7741 47.8521C95.0372 52.9826 88.7942 56.2956 82.4232 56.2567C77.8952 56.2291 73.3205 54.6685 68.9137 55.7098C67.2089 56.1126 65.6159 56.892 64.2516 57.9908C62.8872 59.0896 61.7862 60.4799 61.0293 62.0597C60.2724 63.6395 59.8788 65.3687 59.8773 67.1205C59.8759 68.8723 60.2666 70.6021 61.0209 72.1832C59.6671 70.7024 57.0501 71.053 55.6653 72.5049C54.2805 73.9567 53.922 76.1237 54.0615 78.1252C54.2749 81.1865 55.4743 84.071 56.7388 86.8785C46.1376 86.5448 36.1106 79.1082 32.7355 69.0501C29.3463 58.9499 32.8983 46.9082 41.2267 40.2644Z" fill="#383652"/>
<path opacity="0.2" d="M24.5312 138.892L31.5211 176.922L35.7151 177.287L24.5312 138.892Z" fill="black"/>
<path opacity="0.2" d="M101.52 136.022L94.53 176.893L90.3359 177.286L101.52 136.022Z" fill="black"/>
<path d="M47.1884 27.4646C45.8482 28.0242 44.4498 27.4109 43.8633 26.0063C43.2679 24.5804 43.824 23.1328 45.1857 22.5642C46.5475 21.9956 47.921 22.6103 48.5261 24.0593C49.1221 25.4866 48.572 26.8868 47.1884 27.4646ZM44.6212 19.7574L43.5556 20.2023C43.2894 20.3122 42.9916 20.3181 42.7213 20.2189C42.4509 20.1198 42.2276 19.9227 42.0955 19.6668L42.0429 19.5637C40.8963 17.4959 40.765 14.9828 41.6547 12.098C42.4789 9.51028 42.8213 7.69033 42.1328 6.04154C41.3368 4.13525 39.637 3.53809 37.4695 4.40313C36.6288 4.75418 36.3613 4.74858 35.6997 5.40488C35.5558 5.54938 35.3842 5.66341 35.1953 5.74019C35.0064 5.81697 34.8039 5.85491 34.6 5.85175C34.4029 5.84943 34.2082 5.80744 34.0277 5.72828C33.8471 5.64911 33.6844 5.5344 33.5491 5.39098C33.2886 5.11459 33.1426 4.74962 33.1406 4.36977C33.1387 3.98992 33.281 3.62349 33.5388 3.34448C34.6508 2.18042 35.992 1.25951 37.4779 0.63984C42.1351 -1.30485 44.4795 1.5662 45.5524 4.13552C46.6018 6.64861 46.0115 8.98034 45.063 12.0002C44.2682 14.5094 44.3145 16.3688 45.2173 18.2175C45.2825 18.3573 45.3188 18.5088 45.324 18.663C45.3291 18.8171 45.3031 18.9707 45.2474 19.1145C45.1917 19.2583 45.1076 19.3894 45 19.4999C44.8923 19.6103 44.7635 19.6979 44.6212 19.7574L44.6212 19.7574Z" fill="#0061F5"/>
<path d="M162.878 38.9966H140.244C140.172 38.9971 140.101 38.9834 140.034 38.9562C139.968 38.929 139.907 38.8889 139.856 38.8382C139.805 38.7876 139.765 38.7273 139.737 38.6609C139.71 38.5945 139.695 38.5233 139.695 38.4514C139.695 38.3795 139.71 38.3083 139.737 38.2419C139.765 38.1756 139.805 38.1153 139.856 38.0646C139.907 38.0139 139.968 37.9739 140.034 37.9467C140.101 37.9195 140.172 37.9058 140.244 37.9063H162.878C163.022 37.9072 163.16 37.9651 163.261 38.0672C163.363 38.1694 163.42 38.3075 163.42 38.4514C163.42 38.5954 163.363 38.7335 163.261 38.8356C163.16 38.9378 163.022 38.9956 162.878 38.9966Z" fill="#0061F5"/>
<path d="M191.581 39.1782H168.947C168.875 39.1787 168.804 39.165 168.738 39.1378C168.671 39.1106 168.61 39.0706 168.559 39.0199C168.508 38.9692 168.468 38.909 168.44 38.8426C168.413 38.7762 168.398 38.705 168.398 38.6331C168.398 38.5612 168.413 38.49 168.44 38.4236C168.468 38.3572 168.508 38.2969 168.559 38.2463C168.61 38.1956 168.671 38.1555 168.738 38.1283C168.804 38.1012 168.875 38.0874 168.947 38.0879H191.581C191.653 38.0874 191.724 38.1012 191.791 38.1283C191.858 38.1555 191.918 38.1956 191.969 38.2463C192.02 38.2969 192.061 38.3572 192.088 38.4236C192.116 38.49 192.13 38.5612 192.13 38.6331C192.13 38.705 192.116 38.7762 192.088 38.8426C192.061 38.909 192.02 38.9692 191.969 39.0199C191.918 39.0706 191.858 39.1106 191.791 39.1378C191.724 39.165 191.653 39.1787 191.581 39.1782Z" fill="#0061F5"/>
<path d="M220.293 39.3609H197.659C197.515 39.3599 197.377 39.302 197.276 39.1999C197.174 39.0977 197.117 38.9596 197.117 38.8157C197.117 38.6717 197.174 38.5336 197.276 38.4315C197.377 38.3294 197.515 38.2715 197.659 38.2705H220.293C220.364 38.27 220.436 38.2838 220.502 38.311C220.569 38.3381 220.629 38.3782 220.68 38.4289C220.731 38.4796 220.772 38.5398 220.8 38.6062C220.827 38.6726 220.841 38.7438 220.841 38.8157C220.841 38.8876 220.827 38.9588 220.8 39.0252C220.772 39.0916 220.731 39.1518 220.68 39.2025C220.629 39.2532 220.569 39.2933 220.502 39.3204C220.436 39.3476 220.364 39.3614 220.293 39.3609H220.293Z" fill="#0061F5"/>
<path d="M249.011 39.5425H226.377C226.233 39.5415 226.096 39.4836 225.994 39.3815C225.893 39.2794 225.836 39.1413 225.836 38.9973C225.836 38.8534 225.893 38.7153 225.994 38.6131C226.096 38.511 226.233 38.4531 226.377 38.4521H249.011C249.155 38.4531 249.293 38.511 249.394 38.6131C249.496 38.7153 249.553 38.8534 249.553 38.9973C249.553 39.1413 249.496 39.2794 249.394 39.3815C249.293 39.4836 249.155 39.5415 249.011 39.5425Z" fill="#0061F5"/>
<path d="M151.504 33.9788C153.827 33.9788 155.71 32.0954 155.71 29.7721C155.71 27.4488 153.827 25.5654 151.504 25.5654C149.18 25.5654 147.297 27.4488 147.297 29.7721C147.297 32.0954 149.18 33.9788 151.504 33.9788Z" fill="#0061F5"/>
<path d="M180.394 33.9788C182.717 33.9788 184.601 32.0954 184.601 29.7721C184.601 27.4488 182.717 25.5654 180.394 25.5654C178.071 25.5654 176.188 27.4488 176.188 29.7721C176.188 32.0954 178.071 33.9788 180.394 33.9788Z" fill="#0061F5"/>
<path d="M209.277 33.9788C211.6 33.9788 213.484 32.0954 213.484 29.7721C213.484 27.4488 211.6 25.5654 209.277 25.5654C206.954 25.5654 205.07 27.4488 205.07 29.7721C205.07 32.0954 206.954 33.9788 209.277 33.9788Z" fill="#0061F5"/>
<path d="M238.16 33.9788C240.483 33.9788 242.366 32.0954 242.366 29.7721C242.366 27.4488 240.483 25.5654 238.16 25.5654C235.837 25.5654 233.953 27.4488 233.953 29.7721C233.953 32.0954 235.837 33.9788 238.16 33.9788Z" fill="#0061F5"/>
</svg>
