<svg width="24" height="20" viewBox="0 0 24 20" fill="none" xmlns="http://www.w3.org/2000/svg">
<path d="M14.4591 3H20.4321C20.8489 2.99996 21.2613 3.0868 21.6427 3.25499C22.0241 3.42317 22.3664 3.66902 22.6475 3.97683C22.9286 4.28465 23.1425 4.64768 23.2756 5.04276C23.4086 5.43785 23.4578 5.85633 23.4201 6.2715L22.4646 16.7715C22.3968 17.5169 22.0529 18.21 21.5004 18.7148C20.9478 19.2197 20.2265 19.4997 19.4781 19.5H3.95456C3.20611 19.4997 2.48481 19.2197 1.93225 18.7148C1.37969 18.21 1.03579 17.5169 0.968056 16.7715L0.0125562 6.2715C-0.0513645 5.57667 0.130147 4.88141 0.525556 4.3065L0.467056 3C0.467056 2.20435 0.783127 1.44129 1.34574 0.87868C1.90834 0.316071 2.67141 0 3.46706 0H8.97506C9.77064 0.000169912 10.5336 0.316352 11.0961 0.879L12.3381 2.121C12.9005 2.68365 13.6635 2.99983 14.4591 3ZM1.97606 3.18C2.29706 3.063 2.64206 3 3.00206 3H11.0961L10.0356 1.9395C9.75432 1.65818 9.37285 1.50008 8.97506 1.5H3.46706C3.07412 1.49993 2.69685 1.65405 2.41635 1.92922C2.13585 2.20439 1.97452 2.57864 1.96706 2.9715L1.97606 3.18Z" fill="#FFC700"/>
</svg>
