<svg width="21" height="22" viewBox="0 0 21 22" fill="none" xmlns="http://www.w3.org/2000/svg">
<path d="M2 17.0058V6.00577H18V9.29577C18.72 9.51577 19.4 9.83577 20 10.2658V6.00577C20 4.89577 19.11 4.00577 18 4.00577H14V2.00577C14 0.895768 13.11 0.00576782 12 0.00576782H8C6.89 0.00576782 6 0.895768 6 2.00577V4.00577H2C0.89 4.00577 0.00999999 4.89577 0.00999999 6.00577L0 17.0058C0 18.1158 0.89 19.0058 2 19.0058H9.68C9.38 18.3858 9.18 17.7158 9.08 17.0058H2ZM8 2.00577H12V4.00577H8V2.00577Z" fill="black"/>
<path d="M16 11.0058C13.24 11.0058 11 13.2458 11 16.0058C11 18.7658 13.24 21.0058 16 21.0058C18.76 21.0058 21 18.7658 21 16.0058C21 13.2458 18.76 11.0058 16 11.0058ZM17.65 18.3558L15.5 16.2058V13.0058H16.5V15.7958L18.35 17.6458L17.65 18.3558Z" fill="black"/>
</svg>
