<svg width="21" height="21" viewBox="0 0 21 21" fill="none" xmlns="http://www.w3.org/2000/svg">
<mask id="mask0_5016_3810" style="mask-type:alpha" maskUnits="userSpaceOnUse" x="0" y="0" width="21" height="21">
<rect width="21" height="21" fill="#D9D9D9"/>
</mask>
<g mask="url(#mask0_5016_3810)">
<path d="M15.5312 17.7188C14.6125 17.7188 13.8359 17.4016 13.2016 16.7672C12.5672 16.1328 12.25 15.3563 12.25 14.4375C12.25 13.5187 12.5672 12.7422 13.2016 12.1078C13.8359 11.4734 14.6125 11.1562 15.5312 11.1562C16.45 11.1562 17.2266 11.4734 17.8609 12.1078C18.4953 12.7422 18.8125 13.5187 18.8125 14.4375C18.8125 15.3563 18.4953 16.1328 17.8609 16.7672C17.2266 17.4016 16.45 17.7188 15.5312 17.7188ZM15.5312 15.9688C15.9542 15.9688 16.3151 15.8193 16.6141 15.5203C16.913 15.2214 17.0625 14.8604 17.0625 14.4375C17.0625 14.0146 16.913 13.6536 16.6141 13.3547C16.3151 13.0557 15.9542 12.9062 15.5312 12.9062C15.1083 12.9062 14.7474 13.0557 14.4484 13.3547C14.1495 13.6536 14 14.0146 14 14.4375C14 14.8604 14.1495 15.2214 14.4484 15.5203C14.7474 15.8193 15.1083 15.9688 15.5312 15.9688ZM3.5 15.3125V13.5625H10.5V15.3125H3.5ZM5.46875 9.84375C4.55 9.84375 3.77344 9.52656 3.13906 8.89219C2.50469 8.25781 2.1875 7.48125 2.1875 6.5625C2.1875 5.64375 2.50469 4.86719 3.13906 4.23281C3.77344 3.59844 4.55 3.28125 5.46875 3.28125C6.3875 3.28125 7.16406 3.59844 7.79844 4.23281C8.43281 4.86719 8.75 5.64375 8.75 6.5625C8.75 7.48125 8.43281 8.25781 7.79844 8.89219C7.16406 9.52656 6.3875 9.84375 5.46875 9.84375ZM5.46875 8.09375C5.89167 8.09375 6.2526 7.94427 6.55156 7.64531C6.85052 7.34635 7 6.98542 7 6.5625C7 6.13958 6.85052 5.77865 6.55156 5.47969C6.2526 5.18073 5.89167 5.03125 5.46875 5.03125C5.04583 5.03125 4.6849 5.18073 4.38594 5.47969C4.08698 5.77865 3.9375 6.13958 3.9375 6.5625C3.9375 6.98542 4.08698 7.34635 4.38594 7.64531C4.6849 7.94427 5.04583 8.09375 5.46875 8.09375ZM10.5 7.4375V5.6875H17.5V7.4375H10.5Z" fill="#1C1B1F"/>
</g>
</svg>
