<svg width="23" height="17" viewBox="0 0 23 17" fill="none" xmlns="http://www.w3.org/2000/svg">
<path d="M0.5 16.5V13.7C0.5 13.1333 0.646 12.6123 0.938 12.137C1.22933 11.6623 1.61667 11.3 2.1 11.05C3.13333 10.5333 4.18333 10.1457 5.25 9.887C6.31667 9.629 7.4 9.5 8.5 9.5C9.6 9.5 10.6833 9.629 11.75 9.887C12.8167 10.1457 13.8667 10.5333 14.9 11.05C15.3833 11.3 15.7707 11.6623 16.062 12.137C16.354 12.6123 16.5 13.1333 16.5 13.7V16.5H0.5ZM18.5 16.5V13.5C18.5 12.7667 18.296 12.0623 17.888 11.387C17.4793 10.7123 16.9 10.1333 16.15 9.65C17 9.75 17.8 9.92067 18.55 10.162C19.3 10.404 20 10.7 20.65 11.05C21.25 11.3833 21.7083 11.754 22.025 12.162C22.3417 12.5707 22.5 13.0167 22.5 13.5V16.5H18.5ZM8.5 8.5C7.4 8.5 6.45833 8.10833 5.675 7.325C4.89167 6.54167 4.5 5.6 4.5 4.5C4.5 3.4 4.89167 2.45833 5.675 1.675C6.45833 0.891667 7.4 0.5 8.5 0.5C9.6 0.5 10.5417 0.891667 11.325 1.675C12.1083 2.45833 12.5 3.4 12.5 4.5C12.5 5.6 12.1083 6.54167 11.325 7.325C10.5417 8.10833 9.6 8.5 8.5 8.5ZM18.5 4.5C18.5 5.6 18.1083 6.54167 17.325 7.325C16.5417 8.10833 15.6 8.5 14.5 8.5C14.3167 8.5 14.0833 8.47933 13.8 8.438C13.5167 8.396 13.2833 8.35 13.1 8.3C13.55 7.76667 13.8957 7.175 14.137 6.525C14.379 5.875 14.5 5.2 14.5 4.5C14.5 3.8 14.379 3.125 14.137 2.475C13.8957 1.825 13.55 1.23333 13.1 0.7C13.3333 0.616666 13.5667 0.562334 13.8 0.537C14.0333 0.512334 14.2667 0.5 14.5 0.5C15.6 0.5 16.5417 0.891667 17.325 1.675C18.1083 2.45833 18.5 3.4 18.5 4.5Z" fill="#2A2A2A"/>
</svg>
